# xmcd
#
# Track frame offsets:
#	150
#	18719
#	39646
#	58217
#	77393
#	89521
#	109024
#	130992
#	154625
#	170990
#	183156
#	206168
#
# Disc length: 2995 seconds
#
# Revision: 1
# Processed by: cddbd v1.5.1PL0 Copyright (c) Steve Scherf et al.
# Submitted via: audiograbber 1.83.01
#
DISCID=a40bb10c
DTITLE=Sean Hogan - Catalina Sunrise
DYEAR=2005
DGENRE=Country
TTITLE0=A Cowboy's Heart
TTITLE1=Catalina Sunrise
TTITLE2=My Livin' End Begins
TTITLE3=Yesterday's Town
TTITLE4=Centered
TTITLE5=Take It By The Moment
TTITLE6=Conspiracy Radio
TTITLE7=Sad And Sorry Man
TTITLE8=Some Loves
TTITLE9=Sweet Talk Me
TTITLE10=It's Christmas Time
TTITLE11=Bad Case Of Lovin' You
EXTD=
EXTT0=
EXTT1=
EXTT2=
EXTT3=
EXTT4=
EXTT5=
EXTT6=
EXTT7=
EXTT8=
EXTT9=
EXTT10=
EXTT11=
PLAYORDER=
